<svg xmlns="http://www.w3.org/2000/svg" width="100%" height="100%" viewBox="0 0 90 25" fill="none">
  <path d="M0.683511 11.5579H4.67495C4.88843 12.8124 6.17653 13.6711 7.82924 13.6711C9.42197 13.6711 10.5254 12.9347 10.5254 11.8625C10.5254 8.89291 0.294922 12.2607 0.294922 5.36922C0.294922 2.2749 3.23573 0.0920813 7.46224 0.0920813C8.83562 0.0762274 10.2009 0.304452 11.4944 0.766117C12.3432 1.09078 13.0732 1.66597 13.5873 2.41532C14.1014 3.16466 14.3754 4.05269 14.3729 4.96144H10.4318C10.3383 4.07392 9.14372 3.45986 7.55339 3.45986C6.0542 3.45986 4.98198 4.07392 4.98198 4.99262C4.98198 7.71755 15.2124 4.75275 15.2124 11.3324C15.2124 14.7026 12.0941 17.0293 7.61575 17.0293C6.37488 17.0363 5.14322 16.816 3.98172 16.3793C3.01009 16.0016 2.17526 15.3392 1.58669 14.4788C0.998124 13.6185 0.683303 12.6003 0.683511 11.5579Z" fill="#71DEDE"/>
  <path d="M17.8678 10.584V0.720543H22.7372V9.42062C22.7372 11.3804 23.9005 12.7572 25.6156 12.7572C27.3307 12.7572 28.5252 11.4115 28.5252 9.51178V0.720543H33.3946V17.0461H28.6787V14.29C27.5466 15.9691 25.8914 17.0461 23.8382 17.0461C20.3792 17.0461 17.8678 14.3212 17.8678 10.584Z" fill="#71DEDE"/>
  <path d="M53.8867 8.50193V16.6167C53.8867 21.0591 50.4565 24.0911 45.4336 24.0911C44.1089 24.0994 42.7923 23.882 41.5406 23.4482C40.2315 22.9678 39.1027 22.0952 38.308 20.9494C37.5134 19.8036 37.0917 18.4405 37.1006 17.0461H41.4182C41.7253 18.8235 43.2868 20.4163 45.2561 20.4163C47.4605 20.4163 49.0245 18.7612 49.0245 16.4344V14.9328C47.7725 16.0373 46.1605 16.6471 44.491 16.6479C39.9574 16.6479 36.5753 13.1866 36.5753 8.49234C36.5753 3.62058 40.2525 0.0968866 45.3353 0.0968866C50.303 0.10888 53.8867 3.64216 53.8867 8.50193ZM41.4518 8.59308C41.4518 10.9918 43.0733 12.6709 45.3401 12.6709C47.6069 12.6709 49.1996 11.0469 49.1996 8.59308C49.1996 6.13921 47.6381 4.39776 45.3113 4.39776C43.0541 4.39776 41.4518 6.11282 41.4518 8.59308Z" fill="#71DEDE"/>
  <path d="M74.1317 8.59308V17.0461H69.6605V14.5658C69.0206 15.3589 68.2074 15.9948 67.2835 16.4248C66.3596 16.8547 65.3495 17.0673 64.3306 17.0461C59.7731 17.0461 56.6116 13.5848 56.6116 8.59308C56.6116 3.66135 60.2264 0.108877 65.3405 0.108877C70.4545 0.108877 74.1317 3.66135 74.1317 8.59308ZM61.481 8.59308C61.481 11.0134 63.1049 12.7572 65.3717 12.7572C67.6384 12.7572 69.2623 11.0134 69.2623 8.59308C69.2623 6.17279 67.6384 4.39775 65.3717 4.39775C63.1049 4.39775 61.481 6.14161 61.481 8.59308Z" fill="#71DEDE"/>
  <path d="M89.6608 1.33461V5.74342H87.2621C86.9863 4.94706 86.0988 4.39775 85.1489 4.39775C83.5873 4.39775 82.4839 5.92812 82.4839 8.13253V17.0461H77.6146V0.720546H82.2992V2.74265C83.1891 1.14991 84.7195 0.140061 86.4969 0.140061C87.7611 0.140061 89.0468 0.629395 89.6608 1.33461Z" fill="#71DEDE"/>
</svg>