<svg xmlns="http://www.w3.org/2000/svg" width="100%" height="100%" viewBox="0 0 91 24" fill="none">
<path d="M1.20561 11.4666H5.19704C5.41053 12.7211 6.69863 13.5798 8.35133 13.5798C9.94407 13.5798 11.0475 12.8434 11.0475 11.7712C11.0475 8.8016 0.817017 12.1694 0.817017 5.27791C0.817017 2.18359 3.75782 0.000772692 7.98433 0.000772692C9.35771 -0.0150812 10.723 0.213143 12.0165 0.674809C12.8653 0.999466 13.5953 1.57467 14.1094 2.32401C14.6235 3.07335 14.8975 3.96138 14.895 4.87013H10.9539C10.8604 3.98261 9.66582 3.36855 8.07548 3.36855C6.57629 3.36855 5.50407 3.98261 5.50407 4.90132C5.50407 7.62624 15.7345 4.66145 15.7345 11.2411C15.7345 14.6113 12.6162 16.938 8.13785 16.938C6.89698 16.945 5.66532 16.7247 4.50382 16.2879C3.53219 15.9103 2.69735 15.2479 2.10879 14.3875C1.52022 13.5271 1.2054 12.509 1.20561 11.4666Z" fill="white"/>
<path d="M18.3899 10.4927V0.629234H23.2593V9.32932C23.2593 11.2891 24.4226 12.6659 26.1377 12.6659C27.8528 12.6659 29.0473 11.3202 29.0473 9.42047V0.629234H33.9167V16.9548H29.2008V14.1987C28.0686 15.8778 26.4135 16.9548 24.3603 16.9548C20.9013 16.9548 18.3899 14.2299 18.3899 10.4927Z" fill="white"/>
<path d="M54.4088 8.41062V16.5254C54.4088 20.9678 50.9786 23.9998 45.9557 23.9998C44.631 24.0081 43.3144 23.7907 42.0627 23.3569C40.7536 22.8765 39.6248 22.0039 38.8301 20.8581C38.0355 19.7123 37.6138 18.3491 37.6227 16.9548H41.9403C42.2474 18.7322 43.8089 20.325 45.7782 20.325C47.9826 20.325 49.5466 18.6699 49.5466 16.3431V14.8415C48.2946 15.946 46.6826 16.5558 45.0131 16.5566C40.4795 16.5566 37.0973 13.0953 37.0973 8.40103C37.0973 3.52927 40.7746 0.00557803 45.8574 0.00557803C50.8251 0.0175715 54.4088 3.55086 54.4088 8.41062ZM41.9739 8.50177C41.9739 10.9005 43.5954 12.5796 45.8622 12.5796C48.129 12.5796 49.7217 10.9556 49.7217 8.50177C49.7217 6.0479 48.1601 4.30645 45.8334 4.30645C43.5762 4.30645 41.9739 6.02152 41.9739 8.50177Z" fill="white"/>
<path d="M74.6538 8.50177V16.9548H70.1826V14.4745C69.5427 15.2676 68.7295 15.9035 67.8056 16.3334C66.8817 16.7634 65.8716 16.9759 64.8527 16.9548C60.2952 16.9548 57.1337 13.4935 57.1337 8.50177C57.1337 3.57004 60.7485 0.0175686 65.8626 0.0175686C70.9766 0.0175686 74.6538 3.57004 74.6538 8.50177ZM62.0031 8.50177C62.0031 10.9221 63.627 12.6659 65.8937 12.6659C68.1605 12.6659 69.7844 10.9221 69.7844 8.50177C69.7844 6.08148 68.1605 4.30644 65.8937 4.30644C63.627 4.30644 62.0031 6.0503 62.0031 8.50177Z" fill="white"/>
<path d="M90.1829 1.2433V5.65211H87.7842C87.5084 4.85575 86.6209 4.30644 85.671 4.30644C84.1094 4.30644 83.006 5.83681 83.006 8.04122V16.9548H78.1367V0.629238H82.8213V2.65134C83.7112 1.05861 85.2416 0.0487529 87.019 0.0487529C88.2832 0.0487529 89.5689 0.538087 90.1829 1.2433Z" fill="white"/>
</svg>