<svg width="100%" height="100%" viewBox="0 0 344 320" fill="none" xmlns="http://www.w3.org/2000/svg">
<path d="M71.207 27.2929C70.8165 26.9023 70.1833 26.9023 69.7928 27.2929L63.4288 33.6568C63.0383 34.0473 63.0383 34.6805 63.4288 35.071C63.8193 35.4616 64.4525 35.4616 64.843 35.071L70.4999 29.4142L76.1567 35.071C76.5473 35.4616 77.1804 35.4616 77.5709 35.071C77.9615 34.6805 77.9615 34.0473 77.5709 33.6568L71.207 27.2929ZM69.4999 28L69.4999 265L71.4999 265L71.4999 28L69.4999 28Z" fill="#E5E5E5"/>
<path d="M137.352 294.638C136.541 294.638 135.784 294.494 135.08 294.206C134.376 293.908 133.757 293.497 133.224 292.974C132.691 292.452 132.275 291.844 131.976 291.15C131.688 290.446 131.544 289.689 131.544 288.878C131.544 288.078 131.688 287.332 131.976 286.638C132.275 285.945 132.685 285.342 133.208 284.83C133.741 284.308 134.36 283.902 135.064 283.614C135.768 283.326 136.525 283.182 137.336 283.182C137.901 283.182 138.451 283.262 138.984 283.422C139.528 283.582 140.019 283.806 140.456 284.094C140.893 284.382 141.251 284.713 141.528 285.086L140.408 286.254C140.088 285.945 139.757 285.689 139.416 285.486C139.085 285.284 138.744 285.129 138.392 285.022C138.04 284.916 137.688 284.862 137.336 284.862C136.76 284.862 136.227 284.964 135.736 285.166C135.256 285.369 134.829 285.652 134.456 286.014C134.093 286.377 133.811 286.804 133.608 287.294C133.405 287.774 133.304 288.302 133.304 288.878C133.304 289.433 133.411 289.961 133.624 290.462C133.837 290.953 134.131 291.385 134.504 291.758C134.888 292.132 135.325 292.425 135.816 292.638C136.317 292.852 136.845 292.958 137.4 292.958C137.816 292.958 138.211 292.9 138.584 292.782C138.957 292.654 139.288 292.478 139.576 292.254C139.864 292.03 140.088 291.774 140.248 291.486C140.408 291.188 140.488 290.873 140.488 290.542V290.222L140.728 290.446H137.304V288.734H142.264C142.285 288.852 142.301 288.969 142.312 289.086C142.323 289.193 142.328 289.3 142.328 289.406C142.339 289.502 142.344 289.598 142.344 289.694C142.344 290.43 142.216 291.102 141.96 291.71C141.704 292.308 141.347 292.825 140.888 293.262C140.44 293.7 139.912 294.041 139.304 294.286C138.707 294.521 138.056 294.638 137.352 294.638ZM147.954 294.638C147.133 294.638 146.397 294.452 145.746 294.078C145.106 293.694 144.599 293.177 144.226 292.526C143.853 291.865 143.666 291.113 143.666 290.27C143.666 289.428 143.853 288.681 144.226 288.03C144.599 287.369 145.106 286.852 145.746 286.478C146.397 286.094 147.133 285.902 147.954 285.902C148.765 285.902 149.49 286.094 150.13 286.478C150.781 286.852 151.293 287.369 151.666 288.03C152.039 288.681 152.226 289.428 152.226 290.27C152.226 291.113 152.039 291.865 151.666 292.526C151.293 293.177 150.781 293.694 150.13 294.078C149.49 294.452 148.765 294.638 147.954 294.638ZM147.954 293.134C148.455 293.134 148.903 293.012 149.298 292.766C149.693 292.51 150.002 292.169 150.226 291.742C150.45 291.305 150.557 290.814 150.546 290.27C150.557 289.716 150.45 289.225 150.226 288.798C150.002 288.361 149.693 288.02 149.298 287.774C148.903 287.529 148.455 287.406 147.954 287.406C147.453 287.406 146.999 287.534 146.594 287.79C146.199 288.036 145.89 288.377 145.666 288.814C145.442 289.241 145.335 289.726 145.346 290.27C145.335 290.814 145.442 291.305 145.666 291.742C145.89 292.169 146.199 292.51 146.594 292.766C146.999 293.012 147.453 293.134 147.954 293.134ZM154.054 294.478V282.638H155.702V294.478H154.054ZM161.385 294.638C160.617 294.638 159.929 294.452 159.321 294.078C158.724 293.694 158.249 293.177 157.897 292.526C157.545 291.865 157.369 291.113 157.369 290.27C157.369 289.428 157.54 288.681 157.881 288.03C158.233 287.369 158.708 286.852 159.305 286.478C159.902 286.094 160.58 285.902 161.337 285.902C161.753 285.902 162.153 285.972 162.537 286.11C162.932 286.238 163.284 286.42 163.593 286.654C163.902 286.878 164.142 287.129 164.313 287.406C164.494 287.673 164.585 287.945 164.585 288.222L164.105 288.254V282.638H165.753V294.478H164.105V292.478H164.425C164.425 292.734 164.34 292.99 164.169 293.246C163.998 293.492 163.769 293.721 163.481 293.934C163.204 294.148 162.878 294.318 162.505 294.446C162.142 294.574 161.769 294.638 161.385 294.638ZM161.609 293.214C162.11 293.214 162.553 293.086 162.937 292.83C163.321 292.574 163.62 292.228 163.833 291.79C164.057 291.342 164.169 290.836 164.169 290.27C164.169 289.705 164.057 289.204 163.833 288.766C163.62 288.318 163.321 287.966 162.937 287.71C162.553 287.454 162.11 287.326 161.609 287.326C161.108 287.326 160.665 287.454 160.281 287.71C159.897 287.966 159.593 288.318 159.369 288.766C159.156 289.204 159.049 289.705 159.049 290.27C159.049 290.836 159.156 291.342 159.369 291.79C159.593 292.228 159.897 292.574 160.281 292.83C160.665 293.086 161.108 293.214 161.609 293.214Z" fill="#2B2B2B"/>
<path d="M48.8687 263.242L47.7207 263.704L44.3467 260.708C44.1787 260.549 43.9873 260.386 43.7727 260.218C43.5487 260.041 43.32 259.873 43.0867 259.714C42.8533 259.555 42.6247 259.429 42.4007 259.336C42.1673 259.233 41.948 259.182 41.7427 259.182C41.444 259.182 41.192 259.243 40.9867 259.364C40.772 259.476 40.6087 259.644 40.4967 259.868C40.3847 260.083 40.3287 260.344 40.3287 260.652C40.3287 260.923 40.408 261.189 40.5667 261.45C40.7253 261.711 40.9493 261.949 41.2387 262.164C41.528 262.379 41.864 262.547 42.2467 262.668L41.5187 263.83C40.9773 263.671 40.5153 263.433 40.1327 263.116C39.7407 262.789 39.442 262.402 39.2367 261.954C39.0313 261.497 38.9287 261.002 38.9287 260.47C38.9287 259.919 39.0453 259.429 39.2787 259C39.5027 258.571 39.82 258.235 40.2307 257.992C40.632 257.749 41.0987 257.628 41.6307 257.628C41.8453 257.628 42.0647 257.651 42.2887 257.698C42.5127 257.745 42.746 257.819 42.9887 257.922C43.222 258.025 43.4693 258.155 43.7307 258.314C43.9827 258.473 44.2487 258.664 44.5287 258.888C44.8087 259.103 45.1027 259.35 45.4107 259.63L47.8327 261.856L47.4127 262.136L47.4127 257.32L48.8687 257.32L48.8687 263.242ZM49.0087 252.632C49.0087 253.379 48.8033 254.023 48.3927 254.564C47.982 255.096 47.4033 255.507 46.6567 255.796C45.9007 256.085 45.0047 256.23 43.9687 256.23C42.9327 256.23 42.0413 256.085 41.2947 255.796C40.5387 255.507 39.9553 255.096 39.5447 254.564C39.134 254.023 38.9287 253.379 38.9287 252.632C38.9287 251.885 39.134 251.241 39.5447 250.7C39.9553 250.159 40.5387 249.743 41.2947 249.454C42.0413 249.165 42.9327 249.02 43.9687 249.02C45.0047 249.02 45.9007 249.165 46.6567 249.454C47.4033 249.743 47.982 250.159 48.3927 250.7C48.8033 251.241 49.0087 251.885 49.0087 252.632ZM47.6367 252.632C47.6367 251.951 47.3193 251.423 46.6847 251.05C46.0407 250.677 45.1353 250.49 43.9687 250.49C42.802 250.49 41.9013 250.677 41.2667 251.05C40.6227 251.423 40.3007 251.951 40.3007 252.632C40.3007 253.313 40.6227 253.841 41.2667 254.214C41.9013 254.587 42.802 254.774 43.9687 254.774C45.1353 254.774 46.0407 254.587 46.6847 254.214C47.3193 253.841 47.6367 253.313 47.6367 252.632ZM52.0887 242.206L48.6587 240.722L49.8067 240.708L41.5187 244.376L41.5187 242.696L46.9227 240.4C47.016 240.354 47.1607 240.298 47.3567 240.232C47.5433 240.167 47.73 240.111 47.9167 240.064L48.0007 240.428C47.8047 240.354 47.6087 240.284 47.4127 240.218C47.2167 240.144 47.0207 240.074 46.8247 240.008L41.5187 238.09L41.5187 236.382L48.8687 239.406L52.0887 240.652L52.0887 242.206ZM49.0087 232.01C49.0087 232.766 48.85 233.438 48.5327 234.026C48.206 234.605 47.7627 235.062 47.2027 235.398C46.6427 235.725 45.9987 235.888 45.2707 235.888C44.692 235.888 44.1647 235.795 43.6887 235.608C43.2127 235.422 42.802 235.165 42.4567 234.838C42.102 234.502 41.8313 234.106 41.6447 233.648C41.4487 233.182 41.3507 232.678 41.3507 232.136C41.3507 231.66 41.444 231.217 41.6307 230.806C41.808 230.396 42.0553 230.041 42.3727 229.742C42.69 229.434 43.068 229.201 43.5067 229.042C43.936 228.874 44.4073 228.795 44.9207 228.804L45.5367 228.818L45.5367 234.824L44.3887 235.146L44.3887 230.064L44.6267 230.274L44.2907 230.274C43.9827 230.302 43.7073 230.405 43.4647 230.582C43.222 230.76 43.0307 230.984 42.8907 231.254C42.7507 231.525 42.6807 231.819 42.6807 232.136C42.6807 232.64 42.7787 233.065 42.9747 233.41C43.1613 233.756 43.4413 234.017 43.8147 234.194C44.1787 234.372 44.6313 234.46 45.1727 234.46C45.686 234.46 46.134 234.353 46.5167 234.138C46.89 233.924 47.1793 233.62 47.3847 233.228C47.59 232.836 47.6927 232.384 47.6927 231.87C47.6927 231.506 47.632 231.17 47.5107 230.862C47.3893 230.545 47.17 230.204 46.8527 229.84L47.8747 229.112C48.0987 229.336 48.2947 229.612 48.4627 229.938C48.6307 230.256 48.766 230.596 48.8687 230.96C48.962 231.315 49.0087 231.665 49.0087 232.01ZM49.0087 224.409C49.0087 225.016 48.8407 225.571 48.5047 226.075C48.1687 226.57 47.7113 226.966 47.1327 227.265C46.554 227.564 45.9007 227.713 45.1727 227.713C44.4353 227.713 43.782 227.564 43.2127 227.265C42.634 226.957 42.1813 226.546 41.8547 226.033C41.528 225.51 41.3647 224.927 41.3647 224.283C41.3647 223.9 41.4207 223.55 41.5327 223.233C41.6447 222.916 41.8033 222.64 42.0087 222.407C42.2047 222.164 42.4333 221.968 42.6947 221.819C42.956 221.66 43.236 221.562 43.5347 221.525L43.4227 221.847L41.5187 221.847L41.5187 220.391L48.8687 220.391L48.8687 221.847L47.1187 221.847L47.0207 221.511C47.2727 221.567 47.52 221.684 47.7627 221.861C47.996 222.029 48.206 222.248 48.3927 222.519C48.5793 222.78 48.7287 223.074 48.8407 223.401C48.9527 223.718 49.0087 224.054 49.0087 224.409ZM47.6787 224.031C47.6787 223.592 47.5713 223.205 47.3567 222.869C47.142 222.533 46.848 222.272 46.4747 222.085C46.092 221.889 45.658 221.791 45.1727 221.791C44.6967 221.791 44.272 221.889 43.8987 222.085C43.5253 222.272 43.2313 222.533 43.0167 222.869C42.802 223.205 42.6947 223.592 42.6947 224.031C42.6947 224.46 42.802 224.843 43.0167 225.179C43.2313 225.506 43.5253 225.767 43.8987 225.963C44.272 226.15 44.6967 226.243 45.1727 226.243C45.658 226.243 46.092 226.15 46.4747 225.963C46.848 225.767 47.142 225.506 47.3567 225.179C47.5713 224.843 47.6787 224.46 47.6787 224.031ZM48.8687 218.378L41.5187 218.378L41.5187 216.922L43.8287 216.922L43.2687 217.062C42.914 216.959 42.592 216.786 42.3027 216.544C42.0133 216.292 41.7847 216.007 41.6167 215.69C41.4487 215.363 41.3647 215.027 41.3647 214.682C41.3647 214.523 41.3787 214.374 41.4067 214.234C41.4347 214.084 41.4673 213.968 41.5047 213.884L43.0727 214.262C43.026 214.374 42.9887 214.5 42.9607 214.64C42.9233 214.77 42.9047 214.901 42.9047 215.032C42.9047 215.284 42.956 215.526 43.0587 215.76C43.152 215.984 43.2873 216.184 43.4647 216.362C43.6327 216.53 43.8333 216.665 44.0667 216.768C44.2907 216.87 44.538 216.922 44.8087 216.922L48.8687 216.922L48.8687 218.378ZM51.9487 208.807L41.5187 208.807L41.5187 207.351L43.1987 207.351L43.0727 207.575C42.7927 207.519 42.5267 207.361 42.2747 207.099C42.0133 206.838 41.8033 206.521 41.6447 206.147C41.4767 205.765 41.3927 205.373 41.3927 204.971C41.3927 204.309 41.556 203.721 41.8827 203.207C42.2093 202.694 42.6573 202.288 43.2267 201.989C43.796 201.691 44.4493 201.541 45.1867 201.541C45.9147 201.541 46.568 201.691 47.1467 201.989C47.716 202.279 48.1687 202.68 48.5047 203.193C48.8313 203.707 48.9947 204.285 48.9947 204.929C48.9947 205.359 48.9107 205.774 48.7427 206.175C48.5653 206.577 48.3413 206.917 48.0707 207.197C47.8 207.477 47.52 207.65 47.2307 207.715L47.0347 207.351L51.9487 207.351L51.9487 208.807ZM47.6647 205.167C47.6647 204.738 47.5573 204.355 47.3427 204.019C47.128 203.683 46.834 203.417 46.4607 203.221C46.0873 203.025 45.6627 202.927 45.1867 202.927C44.7107 202.927 44.2907 203.025 43.9267 203.221C43.5533 203.408 43.2593 203.669 43.0447 204.005C42.83 204.341 42.7227 204.729 42.7227 205.167C42.7227 205.606 42.83 205.993 43.0447 206.329C43.25 206.665 43.5393 206.931 43.9127 207.127C44.286 207.323 44.7107 207.421 45.1867 207.421C45.6627 207.421 46.0873 207.323 46.4607 207.127C46.834 206.931 47.128 206.665 47.3427 206.329C47.5573 205.993 47.6647 205.606 47.6647 205.167ZM49.0087 196.545C49.0087 197.301 48.85 197.973 48.5327 198.561C48.206 199.14 47.7627 199.597 47.2027 199.933C46.6427 200.26 45.9987 200.423 45.2707 200.423C44.692 200.423 44.1647 200.33 43.6887 200.143C43.2127 199.957 42.802 199.7 42.4567 199.373C42.102 199.037 41.8313 198.641 41.6447 198.183C41.4487 197.717 41.3507 197.213 41.3507 196.671C41.3507 196.195 41.444 195.752 41.6307 195.341C41.808 194.931 42.0553 194.576 42.3727 194.277C42.69 193.969 43.068 193.736 43.5067 193.577C43.936 193.409 44.4073 193.33 44.9207 193.339L45.5367 193.353L45.5367 199.359L44.3887 199.681L44.3887 194.599L44.6267 194.809L44.2907 194.809C43.9827 194.837 43.7073 194.94 43.4647 195.117C43.222 195.295 43.0307 195.519 42.8907 195.789C42.7507 196.06 42.6807 196.354 42.6807 196.671C42.6807 197.175 42.7787 197.6 42.9747 197.945C43.1613 198.291 43.4413 198.552 43.8147 198.729C44.1787 198.907 44.6313 198.995 45.1727 198.995C45.686 198.995 46.134 198.888 46.5167 198.673C46.89 198.459 47.1793 198.155 47.3847 197.763C47.59 197.371 47.6927 196.919 47.6927 196.405C47.6927 196.041 47.632 195.705 47.5107 195.397C47.3893 195.08 47.17 194.739 46.8527 194.375L47.8747 193.647C48.0987 193.871 48.2947 194.147 48.4627 194.473C48.6307 194.791 48.766 195.131 48.8687 195.495C48.962 195.85 49.0087 196.2 49.0087 196.545ZM48.8687 191.772L41.5187 191.772L41.5187 190.316L43.8287 190.316L43.2687 190.456C42.914 190.354 42.592 190.181 42.3027 189.938C42.0133 189.686 41.7847 189.402 41.6167 189.084C41.4487 188.758 41.3647 188.422 41.3647 188.076C41.3647 187.918 41.3787 187.768 41.4067 187.628C41.4347 187.479 41.4673 187.362 41.5047 187.278L43.0727 187.656C43.026 187.768 42.9887 187.894 42.9607 188.034C42.9233 188.165 42.9047 188.296 42.9047 188.426C42.9047 188.678 42.956 188.921 43.0587 189.154C43.152 189.378 43.2873 189.579 43.4647 189.756C43.6327 189.924 43.8333 190.06 44.0667 190.162C44.2907 190.265 44.538 190.316 44.8087 190.316L48.8687 190.316L48.8687 191.772ZM48.8687 185.328L40.6927 185.328C40.2727 185.328 39.8993 185.234 39.5727 185.048C39.246 184.861 38.9893 184.604 38.8027 184.278C38.616 183.951 38.5227 183.573 38.5227 183.144C38.5227 182.845 38.5787 182.565 38.6907 182.304C38.8027 182.042 38.952 181.832 39.1387 181.674L40.2447 182.164C40.1327 182.285 40.044 182.42 39.9787 182.57C39.904 182.71 39.8667 182.845 39.8667 182.976C39.8667 183.172 39.8993 183.34 39.9647 183.48C40.0207 183.61 40.114 183.708 40.2447 183.774C40.366 183.839 40.5153 183.872 40.6927 183.872L48.8687 183.872L48.8687 184.6C48.8687 184.721 48.8687 184.842 48.8687 184.964C48.8687 185.085 48.8687 185.206 48.8687 185.328ZM42.9747 186.504L41.6447 186.504L41.6447 182.136L42.9747 182.136L42.9747 186.504ZM49.0087 177.599C49.0087 178.318 48.8453 178.962 48.5187 179.531C48.1827 180.091 47.73 180.534 47.1607 180.861C46.582 181.188 45.924 181.351 45.1867 181.351C44.4493 181.351 43.796 181.188 43.2267 180.861C42.648 180.534 42.1953 180.091 41.8687 179.531C41.5327 178.962 41.3647 178.318 41.3647 177.599C41.3647 176.89 41.5327 176.255 41.8687 175.695C42.1953 175.126 42.648 174.678 43.2267 174.351C43.796 174.024 44.4493 173.861 45.1867 173.861C45.924 173.861 46.582 174.024 47.1607 174.351C47.73 174.678 48.1827 175.126 48.5187 175.695C48.8453 176.255 49.0087 176.89 49.0087 177.599ZM47.6927 177.599C47.6927 177.16 47.5853 176.768 47.3707 176.423C47.1467 176.078 46.848 175.807 46.4747 175.611C46.092 175.415 45.6627 175.322 45.1867 175.331C44.7013 175.322 44.272 175.415 43.8987 175.611C43.516 175.807 43.2173 176.078 43.0027 176.423C42.788 176.768 42.6807 177.16 42.6807 177.599C42.6807 178.038 42.7927 178.434 43.0167 178.789C43.2313 179.134 43.53 179.405 43.9127 179.601C44.286 179.797 44.7107 179.89 45.1867 179.881C45.6627 179.89 46.092 179.797 46.4747 179.601C46.848 179.405 47.1467 179.134 47.3707 178.789C47.5853 178.434 47.6927 178.038 47.6927 177.599ZM48.8687 172.29L41.5187 172.29L41.5187 170.834L43.8287 170.834L43.2687 170.974C42.914 170.871 42.592 170.698 42.3027 170.456C42.0133 170.204 41.7847 169.919 41.6167 169.602C41.4487 169.275 41.3647 168.939 41.3647 168.594C41.3647 168.435 41.3787 168.286 41.4067 168.146C41.4347 167.996 41.4673 167.88 41.5047 167.796L43.0727 168.174C43.026 168.286 42.9887 168.412 42.9607 168.552C42.9233 168.682 42.9047 168.813 42.9047 168.944C42.9047 169.196 42.956 169.438 43.0587 169.672C43.152 169.896 43.2873 170.096 43.4647 170.274C43.6327 170.442 43.8333 170.577 44.0667 170.68C44.2907 170.782 44.538 170.834 44.8087 170.834L48.8687 170.834L48.8687 172.29ZM48.8687 166.671L41.5187 166.671L41.5187 165.215L43.0867 165.215L43.2547 165.481C43.012 165.407 42.7787 165.29 42.5547 165.131C42.3307 164.963 42.1347 164.763 41.9667 164.529C41.7893 164.287 41.6493 164.03 41.5467 163.759C41.444 163.479 41.3927 163.195 41.3927 162.905C41.3927 162.485 41.4627 162.117 41.6027 161.799C41.7427 161.482 41.9527 161.221 42.2327 161.015C42.5127 160.81 42.8627 160.661 43.2827 160.567L43.2267 160.791L42.9887 160.693C42.774 160.591 42.5733 160.451 42.3867 160.273C42.1907 160.087 42.018 159.877 41.8687 159.643C41.7193 159.41 41.6027 159.163 41.5187 158.901C41.4347 158.64 41.3927 158.383 41.3927 158.131C41.3927 157.581 41.5047 157.128 41.7287 156.773C41.9527 156.409 42.2933 156.139 42.7507 155.961C43.208 155.775 43.7773 155.681 44.4587 155.681L48.8687 155.681L48.8687 157.137L44.5427 157.137C44.1227 157.137 43.782 157.193 43.5207 157.305C43.25 157.408 43.0493 157.567 42.9187 157.781C42.788 157.996 42.7227 158.271 42.7227 158.607C42.7227 158.869 42.7693 159.116 42.8627 159.349C42.9467 159.573 43.068 159.769 43.2267 159.937C43.3853 160.105 43.572 160.236 43.7867 160.329C43.992 160.423 44.2207 160.469 44.4727 160.469L48.8687 160.469L48.8687 161.925L44.5147 161.925C44.132 161.925 43.81 161.981 43.5487 162.093C43.278 162.205 43.0727 162.369 42.9327 162.583C42.7927 162.798 42.7227 163.059 42.7227 163.367C42.7227 163.629 42.7693 163.871 42.8627 164.095C42.9467 164.319 43.068 164.515 43.2267 164.683C43.376 164.851 43.558 164.982 43.7727 165.075C43.978 165.169 44.202 165.215 44.4447 165.215L48.8687 165.215L48.8687 166.671ZM49.0087 150.923C49.0087 151.529 48.8407 152.085 48.5047 152.589C48.1687 153.083 47.7113 153.48 47.1327 153.779C46.554 154.077 45.9007 154.227 45.1727 154.227C44.4353 154.227 43.782 154.077 43.2127 153.779C42.634 153.471 42.1813 153.06 41.8547 152.547C41.528 152.024 41.3647 151.441 41.3647 150.797C41.3647 150.414 41.4207 150.064 41.5327 149.747C41.6447 149.429 41.8033 149.154 42.0087 148.921C42.2047 148.678 42.4333 148.482 42.6947 148.333C42.956 148.174 43.236 148.076 43.5347 148.039L43.4227 148.361L41.5187 148.361L41.5187 146.905L48.8687 146.905L48.8687 148.361L47.1187 148.361L47.0207 148.025C47.2727 148.081 47.52 148.197 47.7627 148.375C47.996 148.543 48.206 148.762 48.3927 149.033C48.5793 149.294 48.7287 149.588 48.8407 149.915C48.9527 150.232 49.0087 150.568 49.0087 150.923ZM47.6787 150.545C47.6787 150.106 47.5713 149.719 47.3567 149.383C47.142 149.047 46.848 148.785 46.4747 148.599C46.092 148.403 45.658 148.305 45.1727 148.305C44.6967 148.305 44.272 148.403 43.8987 148.599C43.5253 148.785 43.2313 149.047 43.0167 149.383C42.802 149.719 42.6947 150.106 42.6947 150.545C42.6947 150.974 42.802 151.357 43.0167 151.693C43.2313 152.019 43.5253 152.281 43.8987 152.477C44.272 152.663 44.6967 152.757 45.1727 152.757C45.658 152.757 46.092 152.663 46.4747 152.477C46.848 152.281 47.142 152.019 47.3567 151.693C47.5713 151.357 47.6787 150.974 47.6787 150.545ZM48.8687 144.891L41.5187 144.891L41.5187 143.449L43.0307 143.449L43.1987 143.701C42.872 143.608 42.5733 143.426 42.3027 143.155C42.0227 142.885 41.7987 142.563 41.6307 142.189C41.4533 141.816 41.3647 141.433 41.3647 141.041C41.3647 140.481 41.4767 140.015 41.7007 139.641C41.9153 139.268 42.2467 138.988 42.6947 138.801C43.1427 138.615 43.7073 138.521 44.3887 138.521L48.8687 138.521L48.8687 139.963L44.4867 139.963C44.0667 139.963 43.7213 140.019 43.4507 140.131C43.1707 140.243 42.97 140.416 42.8487 140.649C42.718 140.883 42.662 141.172 42.6807 141.517C42.6807 141.797 42.7273 142.054 42.8207 142.287C42.9047 142.521 43.026 142.726 43.1847 142.903C43.3433 143.071 43.53 143.207 43.7447 143.309C43.95 143.403 44.174 143.449 44.4167 143.449L48.8687 143.449L48.8687 144.163C48.8687 144.285 48.8687 144.406 48.8687 144.527C48.8687 144.649 48.8687 144.77 48.8687 144.891ZM49.0087 133.443C49.0087 134.125 48.8407 134.736 48.5047 135.277C48.1687 135.809 47.7113 136.234 47.1327 136.551C46.554 136.859 45.9053 137.013 45.1867 137.013C44.468 137.013 43.8193 136.859 43.2407 136.551C42.662 136.234 42.2047 135.809 41.8687 135.277C41.5327 134.736 41.3647 134.125 41.3647 133.443C41.3647 132.79 41.5 132.197 41.7707 131.665C42.032 131.124 42.3913 130.713 42.8487 130.433L43.8287 131.231C43.614 131.381 43.418 131.572 43.2407 131.805C43.0633 132.039 42.9233 132.286 42.8207 132.547C42.718 132.809 42.6667 133.061 42.6667 133.303C42.6667 133.751 42.7787 134.153 43.0027 134.507C43.2173 134.853 43.516 135.128 43.8987 135.333C44.2813 135.539 44.7107 135.641 45.1867 135.641C45.6627 135.641 46.092 135.534 46.4747 135.319C46.848 135.105 47.1467 134.82 47.3707 134.465C47.5947 134.111 47.7067 133.719 47.7067 133.289C47.7067 133.037 47.6647 132.795 47.5807 132.561C47.4967 132.319 47.3707 132.085 47.2027 131.861C47.0347 131.637 46.8293 131.427 46.5867 131.231L47.5667 130.433C47.9867 130.732 48.332 131.161 48.6027 131.721C48.8733 132.272 49.0087 132.846 49.0087 133.443ZM49.0087 125.643C49.0087 126.399 48.85 127.071 48.5327 127.659C48.206 128.238 47.7627 128.695 47.2027 129.031C46.6427 129.358 45.9987 129.521 45.2707 129.521C44.692 129.521 44.1647 129.428 43.6887 129.241C43.2127 129.054 42.802 128.798 42.4567 128.471C42.102 128.135 41.8313 127.738 41.6447 127.281C41.4487 126.814 41.3507 126.31 41.3507 125.769C41.3507 125.293 41.444 124.85 41.6307 124.439C41.808 124.028 42.0553 123.674 42.3727 123.375C42.69 123.067 43.068 122.834 43.5067 122.675C43.936 122.507 44.4073 122.428 44.9207 122.437L45.5367 122.451L45.5367 128.457L44.3887 128.779L44.3887 123.697L44.6267 123.907L44.2907 123.907C43.9827 123.935 43.7073 124.038 43.4647 124.215C43.222 124.392 43.0307 124.616 42.8907 124.887C42.7507 125.158 42.6807 125.452 42.6807 125.769C42.6807 126.273 42.7787 126.698 42.9747 127.043C43.1613 127.388 43.4413 127.65 43.8147 127.827C44.1787 128.004 44.6313 128.093 45.1727 128.093C45.686 128.093 46.134 127.986 46.5167 127.771C46.89 127.556 47.1793 127.253 47.3847 126.861C47.59 126.469 47.6927 126.016 47.6927 125.503C47.6927 125.139 47.632 124.803 47.5107 124.495C47.3893 124.178 47.17 123.837 46.8527 123.473L47.8747 122.745C48.0987 122.969 48.2947 123.244 48.4627 123.571C48.6307 123.888 48.766 124.229 48.8687 124.593C48.962 124.948 49.0087 125.298 49.0087 125.643ZM49.0087 114.118C49.0087 114.725 48.8407 115.28 48.5047 115.784C48.1687 116.279 47.7113 116.675 47.1327 116.974C46.554 117.273 45.9007 117.422 45.1727 117.422C44.4353 117.422 43.782 117.273 43.2127 116.974C42.634 116.666 42.1813 116.255 41.8547 115.742C41.528 115.219 41.3647 114.636 41.3647 113.992C41.3647 113.609 41.4207 113.259 41.5327 112.942C41.6447 112.625 41.8033 112.349 42.0087 112.116C42.2047 111.873 42.4333 111.677 42.6947 111.528C42.956 111.369 43.236 111.271 43.5347 111.234L43.4227 111.556L41.5187 111.556L41.5187 110.1L48.8687 110.1L48.8687 111.556L47.1187 111.556L47.0207 111.22C47.2727 111.276 47.52 111.393 47.7627 111.57C47.996 111.738 48.206 111.957 48.3927 112.228C48.5793 112.489 48.7287 112.783 48.8407 113.11C48.9527 113.427 49.0087 113.763 49.0087 114.118ZM47.6787 113.74C47.6787 113.301 47.5713 112.914 47.3567 112.578C47.142 112.242 46.848 111.981 46.4747 111.794C46.092 111.598 45.658 111.5 45.1727 111.5C44.6967 111.5 44.272 111.598 43.8987 111.794C43.5253 111.981 43.2313 112.242 43.0167 112.578C42.802 112.914 42.6947 113.301 42.6947 113.74C42.6947 114.169 42.802 114.552 43.0167 114.888C43.2313 115.215 43.5253 115.476 43.8987 115.672C44.272 115.859 44.6967 115.952 45.1727 115.952C45.658 115.952 46.092 115.859 46.4747 115.672C46.848 115.476 47.142 115.215 47.3567 114.888C47.5713 114.552 47.6787 114.169 47.6787 113.74ZM52.0887 104.797C52.0887 105.319 52.0047 105.842 51.8367 106.365C51.678 106.878 51.468 107.293 51.2067 107.611L50.0867 107.079C50.2267 106.892 50.348 106.673 50.4507 106.421C50.5627 106.169 50.6467 105.903 50.7027 105.623C50.768 105.343 50.8007 105.067 50.8007 104.797C50.8007 104.283 50.7167 103.854 50.5487 103.509C50.3807 103.163 50.1333 102.902 49.8067 102.725C49.48 102.547 49.074 102.459 48.5887 102.459L47.1747 102.459L47.2727 102.305C47.562 102.351 47.842 102.505 48.1127 102.767C48.374 103.019 48.5887 103.336 48.7567 103.719C48.9247 104.101 49.0087 104.493 49.0087 104.895C49.0087 105.595 48.8453 106.22 48.5187 106.771C48.1827 107.312 47.73 107.741 47.1607 108.059C46.582 108.376 45.924 108.535 45.1867 108.535C44.4493 108.535 43.796 108.381 43.2267 108.073C42.648 107.755 42.1953 107.326 41.8687 106.785C41.5327 106.234 41.3647 105.618 41.3647 104.937C41.3647 104.657 41.402 104.386 41.4767 104.125C41.542 103.863 41.64 103.621 41.7707 103.397C41.892 103.173 42.0273 102.972 42.1767 102.795C42.326 102.617 42.4847 102.473 42.6527 102.361C42.8207 102.249 42.9793 102.179 43.1287 102.151L43.2407 102.459L41.5187 102.459L41.5187 101.017L48.4207 101.017C49.0087 101.017 49.5267 101.105 49.9747 101.283C50.432 101.451 50.8147 101.698 51.1227 102.025C51.44 102.351 51.678 102.748 51.8367 103.215C52.0047 103.681 52.0887 104.209 52.0887 104.797ZM47.6787 104.741C47.6787 104.283 47.5713 103.877 47.3567 103.523C47.142 103.168 46.848 102.893 46.4747 102.697C46.1013 102.501 45.672 102.403 45.1867 102.403C44.7013 102.403 44.272 102.505 43.8987 102.711C43.516 102.907 43.2173 103.182 43.0027 103.537C42.788 103.882 42.6807 104.283 42.6807 104.741C42.6807 105.189 42.7927 105.59 43.0167 105.945C43.2313 106.29 43.53 106.565 43.9127 106.771C44.286 106.967 44.7107 107.065 45.1867 107.065C45.6627 107.065 46.092 106.967 46.4747 106.771C46.848 106.565 47.142 106.29 47.3567 105.945C47.5713 105.59 47.6787 105.189 47.6787 104.741ZM49.0087 96.1669C49.0087 96.7736 48.8407 97.3289 48.5047 97.8329C48.1687 98.3276 47.7113 98.7242 47.1327 99.0229C46.554 99.3216 45.9007 99.4709 45.1727 99.4709C44.4353 99.4709 43.782 99.3216 43.2127 99.0229C42.634 98.7149 42.1813 98.3042 41.8547 97.7909C41.528 97.2682 41.3647 96.6849 41.3647 96.0409C41.3647 95.6582 41.4207 95.3082 41.5327 94.9909C41.6447 94.6736 41.8033 94.3982 42.0087 94.1649C42.2047 93.9222 42.4333 93.7262 42.6947 93.5769C42.956 93.4182 43.236 93.3202 43.5347 93.2829L43.4227 93.6049L41.5187 93.6049L41.5187 92.1489L48.8687 92.1489L48.8687 93.6049L47.1187 93.6049L47.0207 93.2689C47.2727 93.3249 47.52 93.4416 47.7627 93.6189C47.996 93.7869 48.206 94.0062 48.3927 94.2769C48.5793 94.5382 48.7287 94.8322 48.8407 95.1589C48.9527 95.4762 49.0087 95.8122 49.0087 96.1669ZM47.6787 95.7889C47.6787 95.3502 47.5713 94.9629 47.3567 94.6269C47.142 94.2909 46.848 94.0296 46.4747 93.8429C46.092 93.6469 45.658 93.5489 45.1727 93.5489C44.6967 93.5489 44.272 93.6469 43.8987 93.8429C43.5253 94.0296 43.2313 94.2909 43.0167 94.6269C42.802 94.9629 42.6947 95.3502 42.6947 95.7889C42.6947 96.2182 42.802 96.6009 43.0167 96.9369C43.2313 97.2636 43.5253 97.5249 43.8987 97.7209C44.272 97.9076 44.6967 98.0009 45.1727 98.0009C45.658 98.0009 46.092 97.9076 46.4747 97.7209C46.848 97.5249 47.142 97.2636 47.3567 96.9369C47.5713 96.6009 47.6787 96.2182 47.6787 95.7889ZM48.8687 89.8975L41.5187 89.8975L41.5187 88.4555L48.8687 88.4555L48.8687 89.8975ZM39.8947 89.1975C39.8947 89.5055 39.8153 89.7435 39.6567 89.9115C39.498 90.0795 39.274 90.1635 38.9847 90.1635C38.714 90.1635 38.4947 90.0795 38.3267 89.9115C38.1587 89.7342 38.0747 89.4962 38.0747 89.1975C38.0747 88.8895 38.154 88.6515 38.3127 88.4835C38.4713 88.3155 38.6953 88.2315 38.9847 88.2315C39.2553 88.2315 39.4747 88.3202 39.6427 88.4975C39.8107 88.6655 39.8947 88.8989 39.8947 89.1975ZM48.8687 86.239L41.5187 86.239L41.5187 84.797L43.0307 84.797L43.1987 85.049C42.872 84.9557 42.5733 84.7737 42.3027 84.503C42.0227 84.2324 41.7987 83.9104 41.6307 83.537C41.4533 83.1637 41.3647 82.781 41.3647 82.389C41.3647 81.829 41.4767 81.3624 41.7007 80.989C41.9153 80.6157 42.2467 80.3357 42.6947 80.149C43.1427 79.9624 43.7073 79.869 44.3887 79.869L48.8687 79.869L48.8687 81.311L44.4867 81.311C44.0667 81.311 43.7213 81.367 43.4507 81.479C43.1707 81.591 42.97 81.7637 42.8487 81.997C42.718 82.2304 42.662 82.5197 42.6807 82.865C42.6807 83.145 42.7273 83.4017 42.8207 83.635C42.9047 83.8684 43.026 84.0737 43.1847 84.251C43.3433 84.419 43.53 84.5544 43.7447 84.657C43.95 84.7504 44.174 84.797 44.4167 84.797L48.8687 84.797L48.8687 85.511C48.8687 85.6324 48.8687 85.7537 48.8687 85.875C48.8687 85.9964 48.8687 86.1177 48.8687 86.239ZM49.0087 75.4629C49.0087 76.0789 48.9013 76.6342 48.6867 77.1289C48.472 77.6235 48.1547 78.0342 47.7347 78.3609L46.8947 77.3809C47.2213 77.1009 47.4593 76.7975 47.6087 76.4709C47.7487 76.1349 47.8187 75.7569 47.8187 75.3369C47.8187 75.1689 47.8 75.0149 47.7627 74.8749C47.716 74.7255 47.6507 74.5995 47.5667 74.4969C47.4827 74.3849 47.3847 74.3009 47.2727 74.2449C47.1513 74.1889 47.0207 74.1609 46.8807 74.1609C46.638 74.1609 46.442 74.2495 46.2927 74.4269C46.2273 74.5202 46.1573 74.6695 46.0827 74.8749C45.9987 75.0709 45.9147 75.3275 45.8307 75.6449C45.6907 76.1862 45.532 76.6295 45.3547 76.9749C45.1773 77.3202 44.9767 77.5862 44.7527 77.7729C44.5753 77.9129 44.384 78.0155 44.1787 78.0809C43.964 78.1462 43.7307 78.1789 43.4787 78.1789C43.1707 78.1789 42.8907 78.1135 42.6387 77.9829C42.3773 77.8429 42.1533 77.6562 41.9667 77.4229C41.7707 77.1802 41.6213 76.9002 41.5187 76.5829C41.416 76.2562 41.3647 75.9109 41.3647 75.5469C41.3647 75.2015 41.4113 74.8609 41.5047 74.5249C41.598 74.1795 41.7333 73.8622 41.9107 73.5729C42.088 73.2835 42.298 73.0409 42.5407 72.8449L43.4507 73.6709C43.2733 73.8482 43.1193 74.0442 42.9887 74.2589C42.8487 74.4642 42.7413 74.6742 42.6667 74.8889C42.592 75.1035 42.5547 75.2995 42.5547 75.4769C42.5547 75.6729 42.5733 75.8502 42.6107 76.0089C42.648 76.1675 42.704 76.3029 42.7787 76.4149C42.8533 76.5175 42.9467 76.5969 43.0587 76.6529C43.1707 76.7089 43.2967 76.7369 43.4367 76.7369C43.558 76.7275 43.6747 76.6995 43.7867 76.6529C43.8893 76.5969 43.978 76.5222 44.0527 76.4289C44.1273 76.3262 44.2067 76.1722 44.2907 75.9669C44.3747 75.7615 44.454 75.5002 44.5287 75.1829C44.65 74.7162 44.7853 74.3335 44.9347 74.0349C45.0747 73.7269 45.238 73.4842 45.4247 73.3069C45.602 73.1202 45.8073 72.9895 46.0407 72.9149C46.274 72.8402 46.5353 72.8029 46.8247 72.8029C47.2447 72.8029 47.6227 72.9242 47.9587 73.1669C48.2853 73.4002 48.542 73.7175 48.7287 74.1189C48.9153 74.5202 49.0087 74.9682 49.0087 75.4629ZM48.8687 70.3036L39.6427 70.3036L39.6427 68.8616L48.8687 68.8616L48.8687 70.3036ZM42.9187 71.8296L41.5187 71.8296L41.5187 67.1536L42.9187 67.1536L42.9187 71.8296ZM48.8687 61.5528L39.0687 61.5528L39.0687 60.0408L47.4127 60.0408L47.4127 55.4488L48.8687 55.4488L48.8687 61.5528ZM48.8687 53.2979L41.5187 53.2979L41.5187 51.8559L48.8687 51.8559L48.8687 53.2979ZM39.8947 52.5979C39.8947 52.9059 39.8153 53.1439 39.6567 53.3119C39.498 53.4799 39.274 53.5639 38.9847 53.5639C38.714 53.5639 38.4947 53.4799 38.3267 53.3119C38.1587 53.1346 38.0747 52.8966 38.0747 52.5979C38.0747 52.2899 38.154 52.0519 38.3127 51.8839C38.4713 51.7159 38.6953 51.6319 38.9847 51.6319C39.2553 51.6319 39.4747 51.7206 39.6427 51.8979C39.8107 52.0659 39.8947 52.2992 39.8947 52.5979ZM48.8687 49.6394L41.5187 49.6394L41.5187 48.1834L43.8287 48.1834L43.2687 48.3234C42.914 48.2208 42.592 48.0481 42.3027 47.8054C42.0133 47.5534 41.7847 47.2688 41.6167 46.9514C41.4487 46.6248 41.3647 46.2888 41.3647 45.9434C41.3647 45.7848 41.3787 45.6354 41.4067 45.4954C41.4347 45.3461 41.4673 45.2294 41.5047 45.1454L43.0727 45.5234C43.026 45.6354 42.9887 45.7614 42.9607 45.9014C42.9233 46.0321 42.9047 46.1628 42.9047 46.2934C42.9047 46.5454 42.956 46.7881 43.0587 47.0214C43.152 47.2454 43.2873 47.4461 43.4647 47.6234C43.6327 47.7914 43.8333 47.9268 44.0667 48.0294C44.2907 48.1321 44.538 48.1834 44.8087 48.1834L48.8687 48.1834L48.8687 49.6394ZM49.0087 41.4794C49.0087 42.0861 48.8407 42.6414 48.5047 43.1454C48.1687 43.6401 47.7113 44.0367 47.1327 44.3354C46.554 44.6341 45.9007 44.7834 45.1727 44.7834C44.4353 44.7834 43.782 44.6341 43.2127 44.3354C42.634 44.0274 42.1813 43.6167 41.8547 43.1034C41.528 42.5807 41.3647 41.9974 41.3647 41.3534C41.3647 40.9707 41.4207 40.6207 41.5327 40.3034C41.6447 39.9861 41.8033 39.7107 42.0087 39.4774C42.2047 39.2347 42.4333 39.0387 42.6947 38.8894C42.956 38.7307 43.236 38.6327 43.5347 38.5954L43.4227 38.9174L41.5187 38.9174L41.5187 37.4614L48.8687 37.4614L48.8687 38.9174L47.1187 38.9174L47.0207 38.5814C47.2727 38.6374 47.52 38.7541 47.7627 38.9314C47.996 39.0994 48.206 39.3187 48.3927 39.5894C48.5793 39.8507 48.7287 40.1447 48.8407 40.4714C48.9527 40.7887 49.0087 41.1247 49.0087 41.4794ZM47.6787 41.1014C47.6787 40.6627 47.5713 40.2754 47.3567 39.9394C47.142 39.6034 46.848 39.3421 46.4747 39.1554C46.092 38.9594 45.658 38.8614 45.1727 38.8614C44.6967 38.8614 44.272 38.9594 43.8987 39.1554C43.5253 39.3421 43.2313 39.6034 43.0167 39.9394C42.802 40.2754 42.6947 40.6627 42.6947 41.1014C42.6947 41.5307 42.802 41.9134 43.0167 42.2494C43.2313 42.5761 43.5253 42.8374 43.8987 43.0334C44.272 43.2201 44.6967 43.3134 45.1727 43.3134C45.658 43.3134 46.092 43.2201 46.4747 43.0334C46.848 42.8374 47.142 42.5761 47.3567 42.2494C47.5713 41.9134 47.6787 41.5307 47.6787 41.1014Z" fill="#5E5E5E"/>
<path d="M233.423 294.574C232.559 294.574 231.785 294.388 231.103 294.014C230.42 293.63 229.881 293.108 229.487 292.446C229.103 291.774 228.911 291.017 228.911 290.174V283.262H230.639V290.03C230.639 290.574 230.767 291.065 231.023 291.502C231.279 291.929 231.615 292.27 232.031 292.526C232.457 292.782 232.921 292.91 233.423 292.91C233.956 292.91 234.436 292.782 234.863 292.526C235.3 292.27 235.647 291.929 235.903 291.502C236.159 291.065 236.287 290.574 236.287 290.03V283.262H237.935V290.174C237.935 291.017 237.737 291.774 237.343 292.446C236.959 293.108 236.425 293.63 235.743 294.014C235.06 294.388 234.287 294.574 233.423 294.574ZM244.214 294.638C243.606 294.638 243.041 294.558 242.518 294.398C242.006 294.238 241.537 293.998 241.11 293.678C240.694 293.348 240.321 292.942 239.99 292.462L241.174 291.102C241.697 291.849 242.198 292.366 242.678 292.654C243.158 292.942 243.729 293.086 244.39 293.086C244.796 293.086 245.164 293.022 245.494 292.894C245.825 292.766 246.086 292.59 246.278 292.366C246.47 292.142 246.566 291.886 246.566 291.598C246.566 291.406 246.534 291.225 246.47 291.054C246.406 290.884 246.305 290.729 246.166 290.59C246.038 290.452 245.868 290.324 245.654 290.206C245.452 290.089 245.212 289.988 244.934 289.902C244.657 289.806 244.337 289.726 243.974 289.662C243.398 289.545 242.897 289.39 242.47 289.198C242.044 289.006 241.686 288.766 241.398 288.478C241.11 288.19 240.897 287.865 240.758 287.502C240.62 287.129 240.55 286.713 240.55 286.254C240.55 285.806 240.646 285.39 240.838 285.006C241.041 284.622 241.313 284.292 241.654 284.014C242.006 283.726 242.417 283.508 242.886 283.358C243.356 283.198 243.862 283.118 244.406 283.118C244.982 283.118 245.51 283.193 245.99 283.342C246.47 283.492 246.897 283.716 247.27 284.014C247.644 284.302 247.953 284.66 248.198 285.086L246.982 286.286C246.769 285.934 246.529 285.641 246.262 285.406C245.996 285.161 245.702 284.98 245.382 284.862C245.062 284.734 244.721 284.67 244.358 284.67C243.942 284.67 243.58 284.734 243.27 284.862C242.961 284.99 242.716 285.172 242.534 285.406C242.364 285.63 242.278 285.897 242.278 286.206C242.278 286.43 242.321 286.638 242.406 286.83C242.492 287.012 242.62 287.177 242.79 287.326C242.972 287.465 243.212 287.593 243.51 287.71C243.809 287.817 244.166 287.913 244.582 287.998C245.169 288.126 245.692 288.292 246.15 288.494C246.609 288.686 246.998 288.916 247.318 289.182C247.638 289.449 247.878 289.748 248.038 290.078C248.209 290.409 248.294 290.766 248.294 291.15C248.294 291.865 248.129 292.484 247.798 293.006C247.468 293.529 246.998 293.934 246.39 294.222C245.782 294.5 245.057 294.638 244.214 294.638ZM250.743 294.478V283.278H255.127C255.927 283.278 256.647 283.412 257.287 283.678C257.937 283.945 258.492 284.329 258.951 284.83C259.409 285.332 259.761 285.924 260.007 286.606C260.252 287.289 260.375 288.046 260.375 288.878C260.375 289.71 260.252 290.473 260.007 291.166C259.761 291.849 259.409 292.441 258.951 292.942C258.503 293.433 257.953 293.812 257.303 294.078C256.652 294.345 255.927 294.478 255.127 294.478H250.743ZM252.471 292.99L252.423 292.814H255.047C255.612 292.814 256.113 292.724 256.551 292.542C256.999 292.361 257.372 292.105 257.671 291.774C257.98 291.433 258.215 291.017 258.375 290.526C258.535 290.036 258.615 289.486 258.615 288.878C258.615 288.27 258.535 287.726 258.375 287.246C258.215 286.756 257.98 286.34 257.671 285.998C257.361 285.657 256.988 285.396 256.551 285.214C256.113 285.033 255.612 284.942 255.047 284.942H252.375L252.471 284.798V292.99Z" fill="#2B2B2B"/>
<path d="M160.377 70H104.175V248H160.377L179.294 265V87L160.377 70Z" fill="#FFE097"/>
<rect x="123.297" y="87" width="56" height="178" fill="#FFC949"/>
<path d="M104.175 70L123.297 87V265L104.175 248V70Z" fill="#E4B33D"/>
<path d="M116.499 59.824V46.192L117.387 47.8L113.883 49.504L113.187 46.312L117.867 43.96H120.051V59.824H116.499ZM113.547 61V57.76H123.075V61H113.547ZM126.075 61L125.283 59.032L130.251 53.536C130.523 53.248 130.811 52.912 131.115 52.528C131.435 52.144 131.739 51.752 132.027 51.352C132.331 50.936 132.571 50.536 132.747 50.152C132.923 49.752 133.011 49.392 133.011 49.072C133.011 48.704 132.931 48.384 132.771 48.112C132.611 47.824 132.379 47.6 132.075 47.44C131.771 47.28 131.395 47.2 130.947 47.2C130.531 47.2 130.139 47.312 129.771 47.536C129.403 47.744 129.059 48.056 128.739 48.472C128.419 48.888 128.139 49.392 127.899 49.984L125.211 48.472C125.531 47.544 125.987 46.736 126.579 46.048C127.171 45.36 127.875 44.824 128.691 44.44C129.507 44.056 130.379 43.864 131.307 43.864C132.283 43.88 133.163 44.088 133.947 44.488C134.731 44.888 135.347 45.448 135.795 46.168C136.243 46.888 136.467 47.72 136.467 48.664C136.467 49.016 136.427 49.376 136.347 49.744C136.283 50.112 136.163 50.496 135.987 50.896C135.827 51.296 135.611 51.72 135.339 52.168C135.083 52.6 134.763 53.064 134.379 53.56C134.011 54.04 133.587 54.544 133.107 55.072L129.291 59.224L128.811 57.76H137.163V61H126.075ZM145.367 61.24C143.927 61.24 142.695 60.896 141.671 60.208C140.663 59.52 139.887 58.536 139.343 57.256C138.815 55.96 138.551 54.408 138.551 52.6C138.551 50.792 138.815 49.248 139.343 47.968C139.887 46.672 140.663 45.68 141.671 44.992C142.695 44.304 143.927 43.96 145.367 43.96C146.807 43.96 148.039 44.304 149.063 44.992C150.087 45.68 150.863 46.672 151.391 47.968C151.935 49.248 152.207 50.792 152.207 52.6C152.207 54.408 151.935 55.96 151.391 57.256C150.863 58.536 150.087 59.52 149.063 60.208C148.039 60.896 146.807 61.24 145.367 61.24ZM145.367 58.144C146.439 58.144 147.271 57.664 147.863 56.704C148.455 55.744 148.751 54.376 148.751 52.6C148.751 50.792 148.455 49.4 147.863 48.424C147.271 47.448 146.439 46.96 145.367 46.96C144.279 46.96 143.439 47.448 142.847 48.424C142.271 49.4 141.983 50.792 141.983 52.6C141.983 54.376 142.271 55.744 142.847 56.704C143.439 57.664 144.279 58.144 145.367 58.144Z" fill="#2B2B2B"/>
<path d="M251.964 208.68L195.762 208.68L195.762 247.961H251.964L270.875 264.961V225.68L251.964 208.68Z" fill="#91E5E7"/>
<rect x="214.884" y="225.686" width="56" height="39.314" fill="#71DEDE"/>
<path d="M195.762 208.677L214.884 225.677V265L195.762 248L195.762 208.677Z" fill="#43C5C9"/>
<path d="M216.752 200.677L216.092 199.037L220.232 194.457C220.458 194.217 220.698 193.937 220.952 193.617C221.218 193.297 221.472 192.971 221.712 192.637C221.965 192.291 222.165 191.957 222.312 191.637C222.458 191.304 222.532 191.004 222.532 190.737C222.532 190.431 222.465 190.164 222.332 189.937C222.198 189.697 222.005 189.511 221.752 189.377C221.498 189.244 221.185 189.177 220.812 189.177C220.465 189.177 220.138 189.271 219.832 189.457C219.525 189.631 219.238 189.891 218.972 190.237C218.705 190.584 218.472 191.004 218.272 191.497L216.032 190.237C216.298 189.464 216.678 188.791 217.172 188.217C217.665 187.644 218.252 187.197 218.932 186.877C219.612 186.557 220.338 186.397 221.112 186.397C221.925 186.411 222.658 186.584 223.312 186.917C223.965 187.251 224.478 187.717 224.852 188.317C225.225 188.917 225.412 189.611 225.412 190.397C225.412 190.691 225.378 190.991 225.312 191.297C225.258 191.604 225.158 191.924 225.012 192.257C224.878 192.591 224.698 192.944 224.472 193.317C224.258 193.677 223.992 194.064 223.672 194.477C223.365 194.877 223.012 195.297 222.612 195.737L219.432 199.197L219.032 197.977H225.992V200.677H216.752ZM228.169 200.677L233.829 187.957L234.549 189.257H227.309V186.597H236.289L236.589 188.137L231.229 200.677H228.169Z" fill="#2B2B2B"/>
</svg>
