<svg width="80" height="25" viewBox="0 0 90 25" fill="none" xmlns="http://www.w3.org/2000/svg">
<path d="M0.721597 11.5579H4.71303C4.92652 12.8124 6.21462 13.6711 7.86732 13.6711C9.46006 13.6711 10.5635 12.9347 10.5635 11.8625C10.5635 8.89291 0.333008 12.2607 0.333008 5.36922C0.333008 2.2749 3.27381 0.0920813 7.50032 0.0920813C8.8737 0.0762274 10.239 0.304452 11.5325 0.766117C12.3813 1.09078 13.1113 1.66597 13.6254 2.41532C14.1395 3.16466 14.4135 4.05269 14.411 4.96144H10.4699C10.3764 4.07392 9.18181 3.45986 7.59147 3.45986C6.09228 3.45986 5.02007 4.07392 5.02007 4.99262C5.02007 7.71755 15.2505 4.75275 15.2505 11.3324C15.2505 14.7026 12.1322 17.0293 7.65384 17.0293C6.41297 17.0363 5.18131 16.816 4.01981 16.3793C3.04818 16.0016 2.21334 15.3392 1.62478 14.4788C1.03621 13.6185 0.721389 12.6003 0.721597 11.5579Z" fill="#C4C4C4"/>
<path d="M17.9059 10.584V0.720543H22.7752V9.42063C22.7752 11.3804 23.9386 12.7572 25.6537 12.7572C27.3688 12.7572 28.5633 11.4115 28.5633 9.51178V0.720543H33.4327V17.0461H28.7168V14.29C27.5846 15.9691 25.9295 17.0461 23.8762 17.0461C20.4173 17.0461 17.9059 14.3212 17.9059 10.584Z" fill="#C4C4C4"/>
<path d="M53.9248 8.50193V16.6167C53.9248 21.0591 50.4946 24.0911 45.4717 24.0911C44.1469 24.0994 42.8304 23.882 41.5786 23.4482C40.2696 22.9678 39.1408 22.0952 38.3461 20.9494C37.5515 19.8036 37.1298 18.4405 37.1387 17.0461H41.4563C41.7633 18.8235 43.3249 20.4163 45.2942 20.4163C47.4986 20.4163 49.0626 18.7612 49.0626 16.4344V14.9328C47.8106 16.0373 46.1986 16.6471 44.529 16.6479C39.9955 16.6479 36.6133 13.1866 36.6133 8.49233C36.6133 3.62058 40.2905 0.0968866 45.3734 0.0968866C50.3411 0.10888 53.9248 3.64216 53.9248 8.50193ZM41.4899 8.59308C41.4899 10.9918 43.1114 12.6709 45.3782 12.6709C47.645 12.6709 49.2377 11.0469 49.2377 8.59308C49.2377 6.13921 47.6761 4.39775 45.3494 4.39775C43.0922 4.39775 41.4899 6.11282 41.4899 8.59308Z" fill="#C4C4C4"/>
<path d="M74.1698 8.59308V17.0461H69.6986V14.5658C69.0587 15.3589 68.2455 15.9948 67.3216 16.4248C66.3977 16.8547 65.3875 17.0673 64.3687 17.0461C59.8112 17.0461 56.6497 13.5848 56.6497 8.59308C56.6497 3.66135 60.2645 0.108877 65.3786 0.108877C70.4926 0.108877 74.1698 3.66135 74.1698 8.59308ZM61.519 8.59308C61.519 11.0134 63.143 12.7572 65.4097 12.7572C67.6765 12.7572 69.3004 11.0134 69.3004 8.59308C69.3004 6.17279 67.6765 4.39775 65.4097 4.39775C63.143 4.39775 61.519 6.14161 61.519 8.59308Z" fill="#C4C4C4"/>
<path d="M89.6989 1.33461V5.74342H87.3002C87.0244 4.94706 86.1369 4.39775 85.187 4.39775C83.6254 4.39775 82.522 5.92812 82.522 8.13253V17.0461H77.6527V0.720546H82.3373V2.74265C83.2272 1.14991 84.7576 0.140061 86.535 0.140061C87.7991 0.140061 89.0849 0.629395 89.6989 1.33461Z" fill="#C4C4C4"/>
</svg>
