<svg width="82" height="154" viewBox="0 0 82 154" fill="none" xmlns="http://www.w3.org/2000/svg">
<path d="M52.2756 120.151L60.0497 147.691C60.7015 150.005 62.197 151.859 64.0538 152.652C65.3295 153.173 66.7421 153.254 68.0692 152.884C68.541 152.762 69.0016 152.6 69.4462 152.401C69.4697 152.395 69.4924 152.387 69.5139 152.376C71.8645 151.495 73.0327 148.524 72.1862 145.524L63.7857 115.752L52.2756 120.151Z" fill="#FD889A"/>
<path d="M54.9705 120.896C54.7976 120.982 54.6596 121.126 54.5795 121.302C54.4994 121.478 54.482 121.676 54.5303 121.864L61.7823 147.567C62.4059 149.777 63.7575 151.574 65.3829 152.364C66.4694 152.887 67.7089 152.998 68.8706 152.675C69.2784 152.571 69.6752 152.428 70.0558 152.249C70.0756 152.244 70.0947 152.236 70.1122 152.226C72.1298 151.442 73.0694 148.648 72.2596 145.778L63.8986 116.15L54.9705 120.896Z" fill="#FFA7AB"/>
<path d="M29.9526 0.682011L29.6196 0.766663L29.5632 0.783595H29.5463L29.4983 0.800525L18.8686 4.7736C18.3701 4.95532 17.9132 5.23563 17.5254 5.59779C17.1375 5.95994 16.8266 6.39652 16.6112 6.88147C16.3904 7.38605 16.2822 7.93262 16.2939 8.48324C16.3056 9.03387 16.4369 9.57535 16.6789 10.0701C17.1121 10.8659 17.2585 11.7865 17.0937 12.6774C16.8216 13.785 16.3911 14.8476 15.8154 15.8322C15.2511 16.9157 14.6867 17.9372 14.619 19.4243C14.5569 20.6744 14.9407 21.6281 15.3132 22.548C15.7562 23.6429 16.1738 24.6757 15.8775 26.1966C15.3132 29.12 14.8363 30.1979 13.3125 32.6387C12.339 34.1992 12.2036 35.6185 12.0822 36.8714C12.0571 37.5593 11.9247 38.2391 11.69 38.8862C11.3091 39.7496 10.4907 40.3563 9.69781 40.9433C9.13074 41.3311 8.61084 41.7838 8.14865 42.2921C7.15256 43.4998 6.50637 44.4705 6.50637 44.4705C6.07773 45.0078 5.54014 45.4483 4.929 45.7629C4.64579 45.8971 4.35115 46.0057 4.04859 46.0874C3.10047 46.3696 1.92097 46.7477 1.39047 47.9893L0.905125 48.9995L0.84869 49.2308C0.82363 49.3232 0.82363 49.4206 0.84869 49.513L21.4477 122.535C21.6305 123.12 21.9893 123.635 22.4751 124.008C22.9608 124.382 23.55 124.597 24.1623 124.623L39.0416 125.617H39.1347L39.273 125.586L79.1476 110.303C80.598 109.738 81.4051 108.268 81.0015 106.869L54.7589 13.871C51.9202 3.82266 40.808 -2.08616 29.9526 0.682011Z" fill="#FFA7AB"/>
<path d="M40.9773 3.89317C46.6011 4.84694 50.2892 10.7783 52.6792 19.3001L76.45 103.502C76.6824 103.187 76.8387 102.822 76.9068 102.436C76.9748 102.051 76.9527 101.654 76.8422 101.279L53.5399 18.7188C49.3919 3.90728 40.9773 3.89317 40.9773 3.89317Z" fill="#FFDCDD"/>
<path d="M31.6231 28.7052L31.4961 28.725C31.4425 28.725 30.1642 29.0071 29.5857 31.005C29.4599 31.3479 29.405 31.7128 29.4244 32.0775C29.4438 32.4423 29.5371 32.7993 29.6986 33.1269C30.0009 33.8206 30.1501 34.5714 30.136 35.3279C30.1614 37.6954 25.0088 40.1758 24.958 40.2012L24.752 40.2999L45.6586 114.389C45.7021 114.535 45.7768 114.671 45.8776 114.786C45.9785 114.901 46.103 114.992 46.2427 115.055C46.4926 115.167 46.7732 115.191 47.0385 115.122L47.1739 115.08L55.3063 111.976C55.5545 111.89 55.7614 111.713 55.8862 111.482C56.011 111.251 56.0447 110.981 55.9807 110.726L33.5419 31.2081C33.2493 30.2023 32.5989 29.3381 31.7134 28.7786L31.6231 28.7052Z" fill="#FFDCDD"/>
<path d="M44.6456 21.5153L43.5592 21.7975C40.8136 22.4973 39.1629 25.1328 39.8909 27.6752L62.4765 107.735C62.5201 107.882 62.5951 108.018 62.6965 108.133C62.7979 108.248 62.9231 108.339 63.0634 108.401C63.3123 108.513 63.592 108.537 63.8563 108.469L63.9918 108.426L72.1242 105.322C72.3727 105.236 72.58 105.06 72.7049 104.829C72.8298 104.597 72.8632 104.327 72.7986 104.072L50.3597 24.5543C49.7079 22.2348 47.1429 20.8775 44.6456 21.5153Z" fill="#FFDCDD"/>
<path d="M29.8876 0.941593C29.8215 0.872416 29.7366 0.824076 29.6433 0.802519C29.5501 0.780962 29.4526 0.787127 29.3628 0.820256L18.7952 4.77076C18.2838 4.95341 17.8168 5.24222 17.4249 5.61822C17.0331 5.99422 16.7252 6.44888 16.5216 6.95233C16.318 7.45579 16.2232 7.99664 16.2435 8.53933C16.2638 9.08202 16.3987 9.61428 16.6394 10.1011C17.072 10.8971 17.2193 11.8171 17.057 12.7084C16.7829 13.815 16.3515 14.8764 15.7759 15.8604C15.2115 16.9439 14.6472 17.9683 14.5766 19.4525C14.5174 20.7054 14.9011 21.6563 15.2736 22.5791C15.7166 23.6711 16.1371 24.7039 15.838 26.2248C15.2736 29.151 14.7967 30.2261 13.273 32.6698C12.2995 34.2302 12.1612 35.6496 12.0398 36.9024C12.0159 37.5893 11.8845 38.2682 11.6504 38.9144C11.2695 39.7807 10.4512 40.3845 9.66108 40.9715C9.09183 41.3587 8.57082 41.8124 8.1091 42.3231C7.11301 43.528 6.46682 44.5015 6.46682 44.5015C5.99458 45.0412 5.41886 45.4807 4.77375 45.7939C4.49141 45.9271 4.19771 46.0347 3.89617 46.1156C2.94805 46.3978 1.76572 46.7759 1.22112 48.0485L0.882506 48.895C0.808052 49.0663 0.782651 49.2548 0.809139 49.4396C0.854287 49.6936 0.995375 49.7387 1.2578 49.7529L17.6242 50.6699C17.7446 50.6798 17.8648 50.6483 17.9648 50.5805C18.0649 50.5128 18.1388 50.4129 18.1744 50.2975L18.5328 49.0192V48.991C18.5648 48.8221 18.6101 48.6561 18.6682 48.4943C19.213 47.0091 20.279 45.7726 21.6678 45.0151C22.4752 44.5388 23.1595 43.8796 23.6656 43.0906C24.6053 41.5979 25.497 40.5792 26.1093 40.2999C27.5202 39.6537 29.4108 38.556 30.325 37.0068C31.1546 35.596 30.9486 34.5632 30.7483 33.5502C30.5705 32.6444 30.3843 31.7047 30.943 30.4264C31.3284 29.569 31.856 28.7829 32.5034 28.1013C33.2935 27.2011 34.0413 26.3518 34.2106 24.2552C34.3658 22.3759 33.5362 20.9565 32.7377 19.5851C32.0491 18.4028 31.3973 17.2882 31.3606 15.9168C31.3127 14.2971 31.6964 13.2361 32.1423 12.0115C32.6186 10.815 32.9392 9.56215 33.096 8.28388C33.4995 4.89209 30.0344 1.10244 29.8876 0.941593Z" fill="#FD889A"/>
<path d="M1.16471 49.1152L0.834563 49.0954C0.799205 49.2228 0.799205 49.3574 0.834563 49.4848L21.4336 122.501C21.6187 123.093 21.9816 123.613 22.4729 123.99C22.9643 124.368 23.5601 124.585 24.1792 124.612L39.0585 125.6H39.2165L39.3886 125.515L39.4366 125.495L18.2055 50.2439L1.16471 49.1152Z" fill="#FD889A"/>
<path d="M29.803 3.23008C29.6381 3.0026 29.4023 2.83627 29.1327 2.75712C28.8631 2.67797 28.5749 2.69049 28.3131 2.7927L19.6446 6.03776C19.3713 6.13586 19.1208 6.2885 18.9083 6.48641C18.6959 6.68433 18.5259 6.92338 18.4087 7.18904C18.2816 7.48233 18.2195 7.79968 18.2268 8.11923C18.2342 8.43879 18.3106 8.75297 18.451 9.04014C19.0439 10.1585 19.2342 11.4467 18.9899 12.6887C18.6853 13.9405 18.2015 15.1418 17.5537 16.2554C17.0034 17.291 16.6027 18.036 16.5491 19.1619C16.504 20.062 16.7805 20.7449 17.1304 21.6112C17.5932 22.7399 18.166 24.1706 17.7935 26.1515C17.2038 29.2921 16.6084 30.5929 15.0056 33.1636C14.2381 34.3911 14.128 35.5565 14.018 36.6852C13.9799 37.5449 13.8036 38.3929 13.4959 39.1966C12.9316 40.4777 11.8282 41.296 10.9394 41.9535C10.4916 42.2566 10.0781 42.6077 9.70627 43.0003C8.77226 44.1291 8.16557 45.0433 8.16557 45.0461L8.10067 45.1393C7.57582 45.8137 7.01428 46.141 5.9674 46.5501C4.92052 46.9593 4.32512 47.0101 3.41086 47.3544C3.36324 47.3703 3.32275 47.4026 3.29645 47.4454C3.27015 47.4882 3.25971 47.5389 3.26695 47.5886C3.27621 47.6386 3.30275 47.6838 3.34194 47.7163C3.38114 47.7488 3.4305 47.7665 3.48141 47.7663L16.4955 48.4069C16.5487 48.4098 16.6021 48.4041 16.6535 48.3899C16.7369 48.3703 16.8138 48.3296 16.877 48.2718C16.9402 48.2141 16.9876 48.1411 17.0147 48.0598L17.1981 47.4672C18.0446 44.8486 19.5571 44.0162 20.8467 43.2346C21.4112 42.9038 21.8898 42.4446 22.2435 41.8942C24.0071 39.0922 25.1132 38.5899 25.4744 38.4234C27.1393 37.6643 28.347 36.7501 28.8775 35.8528C29.408 34.9554 29.2782 34.4419 29.1004 33.5304C28.9057 32.5456 28.6405 31.194 29.4023 29.4529C29.8575 28.4346 30.4804 27.4998 31.245 26.6876C31.973 25.858 32.4132 25.3557 32.5402 23.8009C32.653 22.4211 32.0153 21.329 31.2788 20.0649C30.5423 18.8007 29.7325 17.4124 29.6817 15.6375C29.6281 13.7102 30.1021 12.4037 30.5621 11.1226C30.9961 10.0478 31.2873 8.92082 31.4284 7.77034C31.5864 6.25504 30.6298 4.45756 29.803 3.23008Z" fill="#FFDCDD"/>
</svg>